<mxfile host="app.diagrams.net" agent="Mozilla/5.0 (Windows NT 10.0; Win64; x64) AppleWebKit/537.36 (KHTML, like Gecko) Chrome/130.0.0.0 Safari/537.36" version="24.8.4">
  <diagram name="Página-1" id="xe23tXiPKZrLK1_WDng0">
    <mxGraphModel dx="1434" dy="772" grid="1" gridSize="10" guides="1" tooltips="1" connect="1" arrows="1" fold="1" page="1" pageScale="1" pageWidth="827" pageHeight="1169" math="0" shadow="0">
      <root>
        <mxCell id="0" />
        <mxCell id="1" parent="0" />
        <mxCell id="oSht-DSXq8WabyExVF9s-8" style="edgeStyle=orthogonalEdgeStyle;rounded=0;orthogonalLoop=1;jettySize=auto;html=1;exitX=1;exitY=0.5;exitDx=0;exitDy=0;entryX=0;entryY=0.5;entryDx=0;entryDy=0;" parent="1" source="oSht-DSXq8WabyExVF9s-1" target="oSht-DSXq8WabyExVF9s-6" edge="1">
          <mxGeometry relative="1" as="geometry" />
        </mxCell>
        <mxCell id="oSht-DSXq8WabyExVF9s-1" value="" style="ellipse;fillColor=strokeColor;html=1;" parent="1" vertex="1">
          <mxGeometry x="80" y="320" width="30" height="30" as="geometry" />
        </mxCell>
        <mxCell id="oSht-DSXq8WabyExVF9s-13" style="edgeStyle=orthogonalEdgeStyle;rounded=0;orthogonalLoop=1;jettySize=auto;html=1;exitX=1;exitY=0.5;exitDx=0;exitDy=0;entryX=0;entryY=0.5;entryDx=0;entryDy=0;" parent="1" source="oSht-DSXq8WabyExVF9s-6" target="oSht-DSXq8WabyExVF9s-12" edge="1">
          <mxGeometry relative="1" as="geometry" />
        </mxCell>
        <mxCell id="oSht-DSXq8WabyExVF9s-23" style="edgeStyle=orthogonalEdgeStyle;rounded=0;orthogonalLoop=1;jettySize=auto;html=1;exitX=0.5;exitY=1;exitDx=0;exitDy=0;entryX=0.5;entryY=1;entryDx=0;entryDy=0;" parent="1" source="oSht-DSXq8WabyExVF9s-6" target="oSht-DSXq8WabyExVF9s-16" edge="1">
          <mxGeometry relative="1" as="geometry">
            <mxPoint x="1000" y="355" as="targetPoint" />
          </mxGeometry>
        </mxCell>
        <mxCell id="oSht-DSXq8WabyExVF9s-6" value="True" style="swimlane;childLayout=stackLayout;horizontal=1;startSize=50;horizontalStack=0;rounded=1;fontSize=14;fontStyle=0;strokeWidth=2;resizeParent=0;resizeLast=1;shadow=0;dashed=0;align=center;arcSize=4;whiteSpace=wrap;html=1;" parent="1" vertex="1">
          <mxGeometry x="300" y="275" width="160" height="120" as="geometry" />
        </mxCell>
        <mxCell id="oSht-DSXq8WabyExVF9s-9" value="Seleção de um andar" style="text;html=1;align=center;verticalAlign=middle;resizable=0;points=[];autosize=1;strokeColor=none;fillColor=none;" parent="1" vertex="1">
          <mxGeometry x="145" y="300" width="140" height="30" as="geometry" />
        </mxCell>
        <mxCell id="oSht-DSXq8WabyExVF9s-21" style="edgeStyle=orthogonalEdgeStyle;rounded=0;orthogonalLoop=1;jettySize=auto;html=1;exitX=0.5;exitY=1;exitDx=0;exitDy=0;entryX=0.5;entryY=0;entryDx=0;entryDy=0;" parent="1" source="oSht-DSXq8WabyExVF9s-10" target="oSht-DSXq8WabyExVF9s-16" edge="1">
          <mxGeometry relative="1" as="geometry">
            <mxPoint x="995" y="310" as="targetPoint" />
          </mxGeometry>
        </mxCell>
        <mxCell id="oSht-DSXq8WabyExVF9s-10" value="False" style="swimlane;childLayout=stackLayout;horizontal=1;startSize=50;horizontalStack=0;rounded=1;fontSize=14;fontStyle=0;strokeWidth=2;resizeParent=0;resizeLast=1;shadow=0;dashed=0;align=center;arcSize=4;whiteSpace=wrap;html=1;" parent="1" vertex="1">
          <mxGeometry x="1225" y="100" width="160" height="120" as="geometry" />
        </mxCell>
        <mxCell id="oSht-DSXq8WabyExVF9s-14" style="edgeStyle=orthogonalEdgeStyle;rounded=0;orthogonalLoop=1;jettySize=auto;html=1;exitX=0.5;exitY=0;exitDx=0;exitDy=0;entryX=0;entryY=0.5;entryDx=0;entryDy=0;" parent="1" source="oSht-DSXq8WabyExVF9s-12" target="oSht-DSXq8WabyExVF9s-10" edge="1">
          <mxGeometry relative="1" as="geometry" />
        </mxCell>
        <mxCell id="oSht-DSXq8WabyExVF9s-19" style="edgeStyle=orthogonalEdgeStyle;rounded=0;orthogonalLoop=1;jettySize=auto;html=1;exitX=1;exitY=0.5;exitDx=0;exitDy=0;entryX=0;entryY=0.5;entryDx=0;entryDy=0;" parent="1" source="oSht-DSXq8WabyExVF9s-12" target="oSht-DSXq8WabyExVF9s-16" edge="1">
          <mxGeometry relative="1" as="geometry">
            <mxPoint x="980" y="335" as="targetPoint" />
          </mxGeometry>
        </mxCell>
        <mxCell id="oSht-DSXq8WabyExVF9s-12" value="" style="rhombus;whiteSpace=wrap;html=1;fillColor=#000000;" parent="1" vertex="1">
          <mxGeometry x="660" y="315" width="40" height="40" as="geometry" />
        </mxCell>
        <mxCell id="oSht-DSXq8WabyExVF9s-15" value="Andar VIP selecionado" style="text;html=1;align=center;verticalAlign=middle;resizable=0;points=[];autosize=1;strokeColor=none;fillColor=none;" parent="1" vertex="1">
          <mxGeometry x="480" y="300" width="150" height="30" as="geometry" />
        </mxCell>
        <mxCell id="oSht-DSXq8WabyExVF9s-16" value="" style="ellipse;html=1;shape=endState;fillColor=strokeColor;" parent="1" vertex="1">
          <mxGeometry x="1290" y="320" width="30" height="30" as="geometry" />
        </mxCell>
        <mxCell id="oSht-DSXq8WabyExVF9s-17" value="Erro no reconhecimento facial" style="text;html=1;align=center;verticalAlign=middle;resizable=0;points=[];autosize=1;strokeColor=none;fillColor=none;" parent="1" vertex="1">
          <mxGeometry x="865" y="120" width="180" height="30" as="geometry" />
        </mxCell>
        <mxCell id="oSht-DSXq8WabyExVF9s-20" value="Sucesso no reconhecimento facial&amp;nbsp;" style="text;html=1;align=center;verticalAlign=middle;resizable=0;points=[];autosize=1;strokeColor=none;fillColor=none;" parent="1" vertex="1">
          <mxGeometry x="850" y="300" width="210" height="30" as="geometry" />
        </mxCell>
        <mxCell id="oSht-DSXq8WabyExVF9s-24" value="Andar comum selecionado" style="text;html=1;align=center;verticalAlign=middle;resizable=0;points=[];autosize=1;strokeColor=none;fillColor=none;" parent="1" vertex="1">
          <mxGeometry x="740" y="380" width="170" height="30" as="geometry" />
        </mxCell>
      </root>
    </mxGraphModel>
  </diagram>
</mxfile>
